<svg width="100%" height="100%" viewBox="0 0 164 115" xmlns="http://www.w3.org/2000/svg">
<path d="M81.6396 0C81.7901 7.44234e-06 132.721 0.00513771 145.43 3.41406C152.459 5.29585 157.984 10.8201 159.865 17.8496C163.266 30.5781 163.279 57.1504 163.279 57.1504C163.279 57.1713 163.278 83.7275 159.865 96.4512C157.984 103.481 152.459 109.005 145.43 110.887C132.721 114.296 81.7901 114.301 81.6396 114.301C81.6396 114.301 30.5785 114.301 17.8496 110.887C10.8201 109.005 5.29578 103.481 3.41406 96.4512C0.00153001 83.7275 5.31639e-07 57.1713 0 57.1504C0 57.1504 0.000131821 30.5781 3.41406 17.8496C5.29578 10.8201 10.8201 5.29578 17.8496 3.41406C30.5784 0.000146135 81.6396 0 81.6396 0ZM65.2959 81.6416L107.715 57.1523L65.2959 32.6631V81.6416Z" fill="#000000"/>
</svg>